<?xml version="1.0" encoding="UTF-8" standalone="no"?>
<!-- Uploaded to: SVG Repo, www.svgrepo.com, Transformed by: SVG Repo Mixer Tools -->

<svg
   width="800px"
   height="800px"
   viewBox="0 0 16 16"
   fill="none"
   version="1.1"
   id="svg1"
   sodipodi:docname="AngelScript-Big-AS.svg"
   inkscape:version="1.3 (0e150ed6c4, 2023-07-21)"
   xmlns:inkscape="http://www.inkscape.org/namespaces/inkscape"
   xmlns:sodipodi="http://sodipodi.sourceforge.net/DTD/sodipodi-0.dtd"
   xmlns="http://www.w3.org/2000/svg"
   xmlns:svg="http://www.w3.org/2000/svg">
  <defs
     id="defs1">
    <rect
       x="206.50954"
       y="227.16049"
       width="80.808081"
       height="138.2716"
       id="rect5" />
  </defs>
  <sodipodi:namedview
     id="namedview1"
     pagecolor="#ffffff"
     bordercolor="#000000"
     borderopacity="0.25"
     inkscape:showpageshadow="2"
     inkscape:pageopacity="0.0"
     inkscape:pagecheckerboard="true"
     inkscape:deskcolor="#d1d1d1"
     inkscape:zoom="1.11375"
     inkscape:cx="412.57015"
     inkscape:cy="383.83838"
     inkscape:window-width="1920"
     inkscape:window-height="1129"
     inkscape:window-x="1912"
     inkscape:window-y="-8"
     inkscape:window-maximized="1"
     inkscape:current-layer="svg1" />
  <g
     id="SVGRepo_bgCarrier"
     stroke-width="0" />
  <g
     id="SVGRepo_tracerCarrier"
     stroke-linecap="round"
     stroke-linejoin="round"
     inkscape:label="SVGRepo_tracerCarrier" />
  <g
     id="SVGRepo_iconCarrier">
    <path
       fill-rule="nonzero"
       clip-rule="nonzero"
       d="M 0,1.75 C 0,0.783501 0.783502,0 1.75,0 h 12.5 C 15.2165,0 16,0.783502 16,1.75 v 2 C 16,4.16421 15.6642,4.5 15.25,4.5 14.8358,4.5 14.5,4.16421 14.5,3.75 v -2 C 14.5,1.61193 14.3881,1.5 14.25,1.5 H 1.75 C 1.61193,1.5 1.5,1.61193 1.5,1.75 v 12.5 c 0,0.1381 0.11193,0.25 0.25,0.25 h 13.5 C 15.6642,14.5 16,14.8358 16,15.25 16,15.6642 15.6642,16 15.25,16 H 1.75 C 0.783501,16 0,15.2165 0,14.25 Z"
       fill="#ffffff"
       id="path1"
       style="fill:#ffffff;fill-opacity:1"
       sodipodi:nodetypes="sssssssssssssssssss" />
  </g>
  <text
     xml:space="preserve"
     style="font-style:normal;font-variant:normal;font-weight:bold;font-stretch:normal;font-size:8.18564px;line-height:0;font-family:Calibri;-inkscape-font-specification:'Calibri Bold';fill:#ffffff;fill-opacity:1;stroke:#ffffff;stroke-width:0.153481;stroke-dasharray:none;stroke-opacity:1"
     x="7.2751641"
     y="13.33922"
     id="text5"><tspan
       sodipodi:role="line"
       id="tspan5"
       style="font-style:normal;font-variant:normal;font-weight:bold;font-stretch:normal;font-family:Calibri;-inkscape-font-specification:'Calibri Bold';stroke:#ffffff;stroke-width:0.153481;stroke-opacity:1"
       x="7.2751641"
       y="13.33922">AS</tspan></text>
  <path
     d="m 1.5271605,3.4583853 c 0,0 0.9048876,0.00671 1.5349038,-0.050872 C 3.3325899,3.3827893 3.9766506,3.0893669 4.6984527,2.9096946 5.1346737,2.8011097 5.6565125,2.7109151 5.8950304,2.6693541 6.0541856,2.6416217 6.1619051,2.6769335 5.9264316,3.1030127 5.6426688,3.6164769 5.7358155,4.2619438 5.886044,4.6697949 6.1558432,5.4022669 7.1441785,5.7184123 7.8316888,5.7403568 8.9272492,5.7753266 9.4717452,5.4046082 9.835946,4.7955931 10.075928,4.3942977 9.775488,3.5434564 9.6337558,2.9841565 9.5568685,2.6807705 9.6644904,2.7060306 9.760264,2.7037823 c 0.361098,-0.00848 0.995357,0.1005349 2.276557,0.4566381 0.762848,0.2120301 2.441899,-0.00726 2.441899,-0.00726 -1.614863,0.7546066 -3.565455,0.040467 -4.100484,-0.014538 -0.0676,-0.00696 -0.104649,0.00726 -0.126454,0.1750742 -0.0376,0.5257506 0.08208,1.2597247 -0.117184,1.6388209 C 9.726442,5.7290395 8.9428773,6.0332251 8.1995592,6.1691353 7.6033561,6.2781465 6.5418204,5.9470452 5.973312,5.4569253 5.503053,5.051509 5.3707664,4.3958835 5.4468776,3.2258281 4.8253041,3.0877466 4.1651323,3.3705193 3.9664152,3.4219862 2.4240676,3.8214489 1.5271605,3.4583853 1.5271605,3.4583853 Z m 6.3395719,0.067792 C 7.5460887,3.5419376 7.312582,3.7313963 7.215293,4.1025405 7.0751702,4.6370899 7.248141,5.413961 7.8683564,5.4581252 c 0,0 0.3159594,-0.00612 0.480893,-0.4168209 C 8.4063364,4.8991511 8.4037004,4.7030991 8.4204914,4.4494745 8.485799,3.4630921 7.8667324,3.526177 7.8667324,3.5261773 Z M 8.022717,5.0889225 C 7.7080591,5.3338173 7.3950252,4.7351846 7.4009624,4.5311059 7.4068944,4.3270272 7.5475002,3.7935307 7.8343591,3.8254932 8.1484306,3.8604876 8.4026814,4.7623959 8.022717,5.0889225 Z M 3.390881,4.1312285 C 3.350878,3.9898998 2.7875,4.2229005 2.7875,4.2229005 2.1329534,4.4291552 1.8403445,4.556166 2.847505,4.398606 c 0,0 0.5853911,-0.1189424 0.543376,-0.2673775 z M 3.5720961,4.989637 C 3.7717636,4.8088251 4.3161201,4.4940492 4.2097443,4.4139922 4.0197378,4.1298596 2.9960283,5.2696307 2.9251785,5.7677848 c 0,0 0.4674559,-0.615634 0.6469176,-0.7781478 z M 4.7162297,5.3688625 C 4.8970272,5.1893562 5.04611,4.9966357 5.049911,4.8994117 5.0528706,4.8237939 4.9576451,4.7309804 4.8677349,4.83194 4.5917101,5.1418874 4.3120055,5.6289477 4.4242553,6.0654046 c 0,0 -0.029442,-0.3774191 0.2919744,-0.6965421 z M 10.649911,4.9966569 c -0.190278,0.1962207 0.490493,0.3585263 0.656407,1.0707722 0.138622,0.00427 -0.0723,-0.7195692 -0.421731,-0.9980976 -0.187518,-0.1494684 -0.234676,-0.072674 -0.234676,-0.072675 z m 2.020953,0.6685482 C 12.419149,5.2088692 12.052155,4.7879377 11.813882,4.599999 c -0.368341,-0.290526 -0.391341,-0.1094562 -0.281295,0.003 0.117336,0.1199121 0.70407,0.5551594 0.992614,1.0307639 0.313462,0.5166781 0.197414,0.1252551 0.145663,0.031436 z m 1.176395,-1.4521402 c 0,0 -1.54327,-0.3407049 -1.5868,-0.1389302 -0.05799,0.2688007 1.5868,0.1389302 1.5868,0.1389302 z"
     id="path1-1"
     inkscape:label="path1"
     style="fill:#ffffff;fill-opacity:1;stroke-width:0.0270775" />
</svg>
