<?xml version="1.0" encoding="UTF-8" standalone="no"?>
<svg
   height="512"
   width="512"
   version="1.1"
   id="svg1"
   sodipodi:docname="AngelScript.svg"
   inkscape:version="1.3 (0e150ed6c4, 2023-07-21)"
   xmlns:inkscape="http://www.inkscape.org/namespaces/inkscape"
   xmlns:sodipodi="http://sodipodi.sourceforge.net/DTD/sodipodi-0.dtd"
   xmlns="http://www.w3.org/2000/svg"
   xmlns:svg="http://www.w3.org/2000/svg">
  <defs
     id="defs1" />
  <sodipodi:namedview
     id="namedview1"
     pagecolor="#ffffff"
     bordercolor="#000000"
     borderopacity="0.25"
     inkscape:showpageshadow="2"
     inkscape:pageopacity="0.0"
     inkscape:pagecheckerboard="true"
     inkscape:deskcolor="#d1d1d1"
     inkscape:zoom="1.7402344"
     inkscape:cx="256"
     inkscape:cy="256"
     inkscape:window-width="1920"
     inkscape:window-height="1129"
     inkscape:window-x="1912"
     inkscape:window-y="-8"
     inkscape:window-maximized="1"
     inkscape:current-layer="svg1" />
  <path
     d="m0 222.6131439s35.7719421.2313995 60.6776886-1.7551422c10.694397-.8530121 36.1553497-10.9764099 64.6895676-17.1753082 17.2446518-3.7463074 37.8739395-6.8581238 47.3030167-8.2920227 6.2917023-.9568024 10.5500641.261322 1.2413635 14.9617157-11.2176819 17.7151031-7.5354156 39.9844513-1.5966034 54.0557861 10.6656799 25.2711182 49.7364655 36.1784973 76.9150696 36.9356079 43.3096008 1.2064819 64.8345642-11.5837097 79.2321167-32.5954285 9.486908-13.8451538-2.3898926-43.2001495-7.992981-62.4966431-3.0393372-10.4671631 1.2147522-9.5956573 5.0011292-9.673233 14.2749023-.29245 39.3483582 3.4685669 89.9967041 15.7545471 30.1568298 7.3152772 96.5329284-.250595 96.5329284-.250595-63.8386536 26.03479-140.9492798 1.3961334-162.0999756-.5016022-2.6725769-.2397919-4.137146.2507324-4.9988098 6.0402679-1.4867249 18.1389923 3.2450867 43.4619446-4.6322632 56.5411987-16.1356506 26.7910156-47.1114502 37.2857666-76.4962463 41.974823-23.569046 3.7610168-65.5335846-7.6623535-88.0078125-24.572052-18.5902405-13.9873352-23.8197784-36.6071625-20.8109589-76.9754181-24.571991-4.7639618-50.6698532 4.9920197-58.5255203 6.7676849-60.9719582 13.7819215-96.4284134 1.2558137-96.4284134 1.2558137zm250.6154327 2.3388825c-12.6756592.5437317-21.9066315 7.0802917-25.752655 19.8851929-5.5393219 18.4425659 1.2985535 45.2455139 25.8168488 46.7692261 0 0 12.4904785-.2111511 19.0106201-14.3807983 2.2567444-4.9044495 2.1525574-11.668457 2.8163757-20.4187927 2.5816956-34.0313264-21.8911896-31.854828-21.8911896-31.854828zm6.1663666 53.9165039c-12.4390259 8.4491577-24.813858-12.2043457-24.5791473-19.2453003.2346954-7.0409546 5.792923-25.4471893 17.1329956-24.3444519 12.4158478 1.2073364 22.4668732 32.3242187 7.4461517 43.5897522zm-183.1053543-33.0415345c-1.5814056-4.8759918-23.8528099 3.1628113-23.8528099 3.1628113-25.8754787 7.1160278-37.4428711 11.4980469 2.3721046 6.0620422 0 .0000001 23.1416321-4.1036529 21.4807053-9.2248535zm7.1637802 29.6160889c7.8932419-6.2382202 29.4126968-17.0983582 25.2074509-19.8604126-7.5113144-9.8029022-47.9805183 29.5205078-50.7813454 46.7073975 0 0 18.4794274-21.2400818 25.5738945-26.8469849zm45.2297974 13.0837097c7.1472626-6.1931763 13.040802-12.8422546 13.1910553-16.1965942.1168671-2.6089172-3.6474609-5.8110657-7.201767-2.3278503-10.9117889 10.6935425-21.9690552 27.4976807-17.531601 42.5559387.0000001 0-1.1639175-13.0213928 11.5423127-24.0314942zm234.5697784-12.8415222c-7.5220337 6.7698364 19.3901367 12.3695679 25.9490356 36.9428711 5.480011.1472778-2.8580933-24.8259583-16.6718445-34.4355164-7.4129638-5.1568298-9.2771911-2.5073547-9.2771911-2.5073547zm79.8922119 23.0656738c-9.9508057-15.7441101-24.4587402-30.2667236-33.8782043-36.750824-14.5612183-10.0234833-15.470459-3.7763367-11.1201172.1036987 4.6385803 4.1371155 27.8332825 19.1536255 39.2399597 35.5625305 12.3917542 17.8259889 7.8041687 4.3214723 5.7583618 1.0845948zm46.505127-50.1004943s-61.0084229-11.754715-62.7292175-4.7932587c-2.2924195 9.2739258 62.7292175 4.7932587 62.7292175 4.7932587z"
     id="path1"
     inkscape:label="path1"
     style="fill:#ffffff;fill-opacity:1" />
</svg>
